<svg width="76" height="101" viewBox="0 0 76 101" fill="none" xmlns="http://www.w3.org/2000/svg">
<path d="M66.8689 17.8586C62.0932 17.7783 56.3613 16.5721 50.5368 14.1996C46.3585 12.4979 42.6422 10.4031 39.5955 8.1448C39.0187 7.71638 38.3177 7.48486 37.5975 7.48486C36.8772 7.48486 36.1762 7.71638 35.5994 8.1448C32.5537 10.4031 28.8364 12.5008 24.6581 14.1996C18.8336 16.5721 13.1056 17.7812 8.32597 17.8586C7.44412 17.865 6.60037 18.2164 5.9778 18.8368C5.35523 19.4571 5.00406 20.2962 5.00049 21.1721V59.8579C5.00081 64.2234 6.10354 68.519 8.20776 72.3517C10.312 76.1844 13.3505 79.4317 17.0451 81.7965L33.7973 92.518C34.9303 93.244 36.2501 93.6301 37.5984 93.6301C38.9468 93.6301 40.2665 93.244 41.3995 92.518L58.1478 81.7965C61.8423 79.4316 64.8806 76.1842 66.9846 72.3515C69.0887 68.5189 70.1913 64.2233 70.1915 59.8579V21.1721C70.1879 20.2967 69.8372 19.458 69.2152 18.8378C68.5933 18.2175 67.7503 17.8657 66.8689 17.8586Z" fill="white"/>
<path d="M71.5658 12.4705C67.3459 12.3911 63.1573 11.6122 59.1129 10.432C54.6816 9.13896 50.4084 7.35547 46.3727 5.11468C44.5403 4.10182 42.7689 2.98234 41.0676 1.762C40.2853 1.20322 39.5656 0.683551 38.5878 0.54162C37.728 0.41871 36.8514 0.56964 36.0822 0.972999C35.2127 1.43008 34.4383 2.12632 33.6236 2.67616C32.7772 3.2409 31.9144 3.78403 31.0353 4.30556C29.1486 5.4224 27.2022 6.4353 25.205 7.33974C20.9623 9.28507 16.507 10.7283 11.9295 11.6401C9.92457 12.0373 7.89481 12.2968 5.85444 12.4168C4.9861 12.4649 4.08199 12.3956 3.2427 12.6593C2.51899 12.8861 1.87069 13.3056 1.36744 13.873C0.490151 14.8788 0.34375 16.0522 0.34375 17.3039V58.3116C0.34375 61.4051 0.354927 64.4582 0.996406 67.508C2.51264 74.6323 6.52097 80.9818 12.3005 85.4147C13.4013 86.2562 14.5692 86.9927 15.7314 87.7426L20.6029 90.8807L31.7293 98.0521C32.7083 98.6824 33.6873 99.4021 34.7635 99.8569C37.4054 100.974 40.3334 100.59 42.716 99.0556L51.8588 93.1628L61.3581 87.0385C66.4709 83.7428 70.5846 79.1363 73.05 73.5507C74.5014 70.2626 75.3617 66.7443 75.5913 63.1574C75.655 62.1661 75.6528 61.1748 75.6528 60.1824V23.5578C75.6528 21.2724 75.6617 18.9869 75.6528 16.7015C75.6631 15.6001 75.2396 14.5389 74.4738 13.7471C73.708 12.9554 72.6614 12.4968 71.5603 12.4705C71.1948 12.4582 71.1959 13.0292 71.5603 13.0371C73.3484 13.0974 74.9029 14.4262 75.0705 16.24C75.0918 16.4635 75.0862 16.687 75.0862 16.9105V56.8812C75.0862 59.1163 75.1689 61.376 74.9945 63.6033C74.4008 70.89 71.1681 77.7094 65.9032 82.7817C63.24 85.3376 60.0472 87.2095 56.9627 89.1976L45.5233 96.5735C44.4728 97.2508 43.4223 97.928 42.3718 98.6053C39.7377 100.298 36.4488 100.393 33.7834 98.7092C31.3002 97.1379 28.8426 95.5253 26.3717 93.9339L15.7929 87.1168C14.5379 86.3076 13.2873 85.503 12.1195 84.5676C9.28537 82.2993 6.88688 79.535 5.04085 76.4094C2.24695 71.6654 0.905883 66.3033 0.905883 60.8161V17.343C0.905883 17.1195 0.905883 16.8882 0.905883 16.6602C0.898925 16.1526 0.999834 15.6494 1.20193 15.1837C1.40403 14.7181 1.70271 14.3006 2.0782 13.959C2.7298 13.3829 3.56445 13.0562 4.43402 13.0371C5.36942 13.0058 6.30146 12.9689 7.23463 12.8851C9.25869 12.6979 11.269 12.384 13.2538 11.9452C17.6424 10.9681 21.9106 9.51257 25.9817 7.6046C27.9348 6.70023 29.8374 5.69071 31.6813 4.58048C32.5753 4.04182 33.4507 3.4782 34.3075 2.88961C35.0976 2.34648 35.8721 1.61001 36.7784 1.27809C37.2411 1.1093 37.7336 1.03824 38.2251 1.0694C38.7166 1.10056 39.1962 1.23326 39.6338 1.45914C40.4798 1.90616 41.2342 2.5767 42.0254 3.11648C43.7758 4.29454 45.5914 5.37283 47.4634 6.34623C51.455 8.43351 55.6596 10.0851 60.0047 11.2724C63.7698 12.2961 67.6577 12.9633 71.5647 13.0371C71.9257 13.0438 71.9257 12.4772 71.5658 12.4705Z" fill="white"/>
<path d="M64.2611 20.9694C59.9731 20.8967 54.8345 19.8071 49.6099 17.6648C45.8616 16.127 42.5268 14.235 39.7944 12.1954C39.2766 11.808 38.6474 11.5986 38.0007 11.5986C37.3541 11.5986 36.7248 11.808 36.207 12.1954C33.4746 14.235 30.1398 16.127 26.3915 17.6648C21.1669 19.8071 16.0284 20.8967 11.7403 20.9694C10.9498 20.9761 10.1937 21.294 9.63587 21.8542C9.07802 22.4143 8.76326 23.1717 8.75977 23.9622V58.9049C8.76027 62.848 9.74955 66.728 11.6371 70.1899C13.5246 73.6518 16.2502 76.5852 19.5643 78.7215L34.5989 88.4063C35.615 89.0615 36.7984 89.41 38.0074 89.41C39.2165 89.41 40.3999 89.0615 41.416 88.4063L56.4438 78.7215C59.758 76.5852 62.4835 73.6518 64.3711 70.1899C66.2586 66.728 67.2479 62.848 67.2484 58.9049V23.9622C67.2449 23.1705 66.9292 22.4122 66.3699 21.8518C65.8106 21.2915 65.0528 20.9744 64.2611 20.9694Z" fill="white"/>
<path d="M60.8566 49.346C60.8856 49.2138 60.8856 49.0767 60.8566 48.9445C60.84 48.7942 60.7888 48.65 60.7072 48.5239L54.0209 38.5054C54.0305 38.4293 54.0305 38.3522 54.0209 38.276C53.9337 38.0998 53.7953 37.9555 53.6247 37.863C53.4542 37.7706 53.2598 37.7345 53.0684 37.7598H24.6609C24.5297 37.7701 24.4023 37.8092 24.2873 37.8745C24.2316 37.919 24.1814 37.9704 24.1379 38.0275C24.083 38.0657 24.0328 38.1107 23.9885 38.1613L16.8353 48.4092C16.7381 48.5501 16.6801 48.7152 16.6672 48.8872C16.6331 49.0317 16.6331 49.1824 16.6672 49.3269C16.6637 49.3714 16.6637 49.4162 16.6672 49.4607L38.8553 75.0039H39.0794H39.1728H39.2849H39.5277H39.8078H39.9199L60.4644 49.5946C60.467 49.5564 60.467 49.518 60.4644 49.4799C60.4644 49.4799 60.8566 49.3651 60.8566 49.346ZM38.7993 40.3791L44.0661 48.0268H33.4763L36.6888 43.3617L38.7993 40.3791ZM44.7759 49.9387L39.4529 70.9698L33.0094 49.9387H44.7759ZM37.3051 70.3962L19.6741 49.9196H31.0484L37.3051 70.3962ZM46.6435 49.9387H57.9617L41.5074 70.4345L46.6435 49.9387ZM47.7268 48.0268L52.9376 40.3791L58.1485 48.0268H47.7268ZM51.1447 39.6717L45.9338 47.3194L40.723 39.6717H51.1447ZM33.7939 44.3368L31.7394 47.3194L27.2943 40.8571L26.4725 39.6717H37.0063L33.7939 44.3368ZM24.6609 40.3791L29.1246 46.8223L29.9464 48.0077H19.394L24.6609 40.3791Z" fill="#161616"/>
</svg>
